<mxfile host="app.diagrams.net" agent="Mozilla/5.0 (Windows NT 10.0; Win64; x64) AppleWebKit/537.36 (KHTML, like Gecko) Chrome/134.0.0.0 Safari/537.36" version="26.2.3">
  <diagram name="Página-1" id="QS-QfgwPZYKxALLiiG3N">
    <mxGraphModel dx="1428" dy="1946" grid="1" gridSize="10" guides="1" tooltips="1" connect="1" arrows="1" fold="1" page="1" pageScale="1" pageWidth="827" pageHeight="1169" math="0" shadow="0">
      <root>
        <mxCell id="0" />
        <mxCell id="1" parent="0" />
        <mxCell id="q2ANLchODeLdnUfNNgly-1" value="Agendar aulas" style="ellipse;whiteSpace=wrap;html=1;" vertex="1" parent="1">
          <mxGeometry x="190" y="30" width="120" height="80" as="geometry" />
        </mxCell>
        <mxCell id="q2ANLchODeLdnUfNNgly-19" style="edgeStyle=orthogonalEdgeStyle;rounded=0;orthogonalLoop=1;jettySize=auto;html=1;exitX=0.5;exitY=0;exitDx=0;exitDy=0;exitPerimeter=0;entryX=0.5;entryY=1;entryDx=0;entryDy=0;" edge="1" parent="1" source="q2ANLchODeLdnUfNNgly-2" target="q2ANLchODeLdnUfNNgly-5">
          <mxGeometry relative="1" as="geometry" />
        </mxCell>
        <mxCell id="q2ANLchODeLdnUfNNgly-22" style="edgeStyle=orthogonalEdgeStyle;rounded=0;orthogonalLoop=1;jettySize=auto;html=1;exitX=0.75;exitY=0.1;exitDx=0;exitDy=0;exitPerimeter=0;entryX=0;entryY=0.5;entryDx=0;entryDy=0;" edge="1" parent="1" source="q2ANLchODeLdnUfNNgly-2" target="q2ANLchODeLdnUfNNgly-9">
          <mxGeometry relative="1" as="geometry" />
        </mxCell>
        <mxCell id="q2ANLchODeLdnUfNNgly-24" style="edgeStyle=orthogonalEdgeStyle;rounded=0;orthogonalLoop=1;jettySize=auto;html=1;exitX=0.25;exitY=0.1;exitDx=0;exitDy=0;exitPerimeter=0;entryX=1;entryY=0.5;entryDx=0;entryDy=0;" edge="1" parent="1" source="q2ANLchODeLdnUfNNgly-2" target="q2ANLchODeLdnUfNNgly-1">
          <mxGeometry relative="1" as="geometry" />
        </mxCell>
        <mxCell id="q2ANLchODeLdnUfNNgly-2" value="Aluno" style="shape=umlActor;verticalLabelPosition=bottom;verticalAlign=top;html=1;outlineConnect=0;" vertex="1" parent="1">
          <mxGeometry x="350" y="110" width="60" height="120" as="geometry" />
        </mxCell>
        <mxCell id="q2ANLchODeLdnUfNNgly-5" value="Fazer Cadastro" style="ellipse;whiteSpace=wrap;html=1;" vertex="1" parent="1">
          <mxGeometry x="320" y="-30" width="120" height="80" as="geometry" />
        </mxCell>
        <mxCell id="q2ANLchODeLdnUfNNgly-9" value="Consultar horários" style="ellipse;whiteSpace=wrap;html=1;" vertex="1" parent="1">
          <mxGeometry x="450" y="30" width="120" height="80" as="geometry" />
        </mxCell>
        <mxCell id="q2ANLchODeLdnUfNNgly-27" style="edgeStyle=orthogonalEdgeStyle;rounded=0;orthogonalLoop=1;jettySize=auto;html=1;exitX=0.5;exitY=0;exitDx=0;exitDy=0;exitPerimeter=0;" edge="1" parent="1" source="q2ANLchODeLdnUfNNgly-26" target="q2ANLchODeLdnUfNNgly-28">
          <mxGeometry relative="1" as="geometry">
            <mxPoint x="900" y="30" as="targetPoint" />
          </mxGeometry>
        </mxCell>
        <mxCell id="q2ANLchODeLdnUfNNgly-30" style="edgeStyle=orthogonalEdgeStyle;rounded=0;orthogonalLoop=1;jettySize=auto;html=1;exitX=0.5;exitY=0;exitDx=0;exitDy=0;exitPerimeter=0;entryX=0.5;entryY=1;entryDx=0;entryDy=0;" edge="1" parent="1" source="q2ANLchODeLdnUfNNgly-26" target="q2ANLchODeLdnUfNNgly-29">
          <mxGeometry relative="1" as="geometry" />
        </mxCell>
        <mxCell id="q2ANLchODeLdnUfNNgly-26" value="Instrutor" style="shape=umlActor;verticalLabelPosition=bottom;verticalAlign=top;html=1;outlineConnect=0;" vertex="1" parent="1">
          <mxGeometry x="870" y="110" width="60" height="120" as="geometry" />
        </mxCell>
        <mxCell id="q2ANLchODeLdnUfNNgly-28" value="Registrar frequência" style="ellipse;whiteSpace=wrap;html=1;" vertex="1" parent="1">
          <mxGeometry x="910" y="-30" width="120" height="80" as="geometry" />
        </mxCell>
        <mxCell id="q2ANLchODeLdnUfNNgly-29" value="Criar Treino" style="ellipse;whiteSpace=wrap;html=1;" vertex="1" parent="1">
          <mxGeometry x="770" y="-30" width="120" height="80" as="geometry" />
        </mxCell>
      </root>
    </mxGraphModel>
  </diagram>
</mxfile>
